<svg id="visual" viewBox="0 0 675 900" width="675" height="900" xmlns="http://www.w3.org/2000/svg" xmlns:xlink="http://www.w3.org/1999/xlink" version="1.1"><g stroke-width="1" stroke-linejoin="bevel"><path d="M302 434L337 365L246 391Z" fill="#205a7a" stroke="#205a7a"></path><path d="M302 434L358 378L337 365Z" fill="#205a7a" stroke="#205a7a"></path><path d="M302 434L376 444L358 378Z" fill="#246688" stroke="#246688"></path><path d="M337 365L225 309L246 391Z" fill="#297ea6" stroke="#297ea6"></path><path d="M402 305L309 281L337 365Z" fill="#1d4e6b" stroke="#1d4e6b"></path><path d="M337 365L309 281L225 309Z" fill="#00101c" stroke="#00101c"></path><path d="M163 311L190 421L246 391Z" fill="#297ea6" stroke="#297ea6"></path><path d="M246 391L190 421L302 434Z" fill="#00101c" stroke="#00101c"></path><path d="M302 434L359 546L376 444Z" fill="#15384f" stroke="#15384f"></path><path d="M451 363L402 305L358 378Z" fill="#19435d" stroke="#19435d"></path><path d="M358 378L402 305L337 365Z" fill="#00101c" stroke="#00101c"></path><path d="M232 237L163 311L225 309Z" fill="#246688" stroke="#246688"></path><path d="M225 309L163 311L246 391Z" fill="#15384f" stroke="#15384f"></path><path d="M163 311L139 414L190 421Z" fill="#205a7a" stroke="#205a7a"></path><path d="M241 552L271 543L190 421Z" fill="#1d4e6b" stroke="#1d4e6b"></path><path d="M190 421L271 543L302 434Z" fill="#081a28" stroke="#081a28"></path><path d="M376 444L451 363L358 378Z" fill="#00101c" stroke="#00101c"></path><path d="M299 217L232 237L309 281Z" fill="#1d4e6b" stroke="#1d4e6b"></path><path d="M309 281L232 237L225 309Z" fill="#205a7a" stroke="#205a7a"></path><path d="M338 209L299 217L309 281Z" fill="#15384f" stroke="#15384f"></path><path d="M271 543L359 546L302 434Z" fill="#0c2435" stroke="#0c2435"></path><path d="M376 444L473 428L451 363Z" fill="#1d4e6b" stroke="#1d4e6b"></path><path d="M142 561L241 552L190 421Z" fill="#205a7a" stroke="#205a7a"></path><path d="M271 543L279 624L359 546Z" fill="#00101c" stroke="#00101c"></path><path d="M106 366L116 423L139 414Z" fill="#19435d" stroke="#19435d"></path><path d="M139 414L97 458L190 421Z" fill="#112e42" stroke="#112e42"></path><path d="M402 305L338 209L309 281Z" fill="#246688" stroke="#246688"></path><path d="M474 216L338 209L402 305Z" fill="#0c2435" stroke="#0c2435"></path><path d="M484 531L473 428L376 444Z" fill="#19435d" stroke="#19435d"></path><path d="M112 334L106 366L163 311Z" fill="#1d4e6b" stroke="#1d4e6b"></path><path d="M163 311L106 366L139 414Z" fill="#0c2435" stroke="#0c2435"></path><path d="M115 229L112 334L163 311Z" fill="#081a28" stroke="#081a28"></path><path d="M515 380L472 321L451 363Z" fill="#19435d" stroke="#19435d"></path><path d="M451 363L472 321L402 305Z" fill="#15384f" stroke="#15384f"></path><path d="M0 414L97 458L116 423Z" fill="#1d4e6b" stroke="#1d4e6b"></path><path d="M116 423L97 458L139 414Z" fill="#00101c" stroke="#00101c"></path><path d="M473 428L515 380L451 363Z" fill="#15384f" stroke="#15384f"></path><path d="M340 117L313 160L338 209Z" fill="#297ea6" stroke="#297ea6"></path><path d="M338 209L313 160L299 217Z" fill="#205a7a" stroke="#205a7a"></path><path d="M299 217L243 144L232 237Z" fill="#297ea6" stroke="#297ea6"></path><path d="M232 237L115 229L163 311Z" fill="#205a7a" stroke="#205a7a"></path><path d="M97 458L142 561L190 421Z" fill="#15384f" stroke="#15384f"></path><path d="M377 646L427 576L359 546Z" fill="#297ea6" stroke="#297ea6"></path><path d="M279 624L271 543L241 552Z" fill="#15384f" stroke="#15384f"></path><path d="M359 546L484 531L376 444Z" fill="#00101c" stroke="#00101c"></path><path d="M473 428L523 474L515 380Z" fill="#246688" stroke="#246688"></path><path d="M212 620L279 624L241 552Z" fill="#15384f" stroke="#15384f"></path><path d="M124 141L115 229L232 237Z" fill="#246688" stroke="#246688"></path><path d="M0 328L0 414L106 366Z" fill="#112e42" stroke="#112e42"></path><path d="M106 366L0 414L116 423Z" fill="#00101c" stroke="#00101c"></path><path d="M427 576L484 531L359 546Z" fill="#081a28" stroke="#081a28"></path><path d="M105 141L108 229L115 229Z" fill="#081a28" stroke="#081a28"></path><path d="M115 229L108 229L112 334Z" fill="#0c2435" stroke="#0c2435"></path><path d="M484 531L523 474L473 428Z" fill="#112e42" stroke="#112e42"></path><path d="M142 561L212 620L241 552Z" fill="#0c2435" stroke="#0c2435"></path><path d="M313 160L243 144L299 217Z" fill="#081a28" stroke="#081a28"></path><path d="M536 281L474 216L472 321Z" fill="#277297" stroke="#277297"></path><path d="M472 321L474 216L402 305Z" fill="#277297" stroke="#277297"></path><path d="M377 646L337 632L314 659Z" fill="#277297" stroke="#277297"></path><path d="M279 624L337 632L359 546Z" fill="#1d4e6b" stroke="#1d4e6b"></path><path d="M615 388L536 281L515 380Z" fill="#19435d" stroke="#19435d"></path><path d="M515 380L536 281L472 321Z" fill="#1d4e6b" stroke="#1d4e6b"></path><path d="M314 659L337 632L279 624Z" fill="#246688" stroke="#246688"></path><path d="M337 632L377 646L359 546Z" fill="#00101c" stroke="#00101c"></path><path d="M541 608L549 563L484 531Z" fill="#205a7a" stroke="#205a7a"></path><path d="M246 719L314 659L279 624Z" fill="#081a28" stroke="#081a28"></path><path d="M415 132L340 117L338 209Z" fill="#0c2435" stroke="#0c2435"></path><path d="M313 160L340 117L243 144Z" fill="#1d4e6b" stroke="#1d4e6b"></path><path d="M474 216L415 132L338 209Z" fill="#15384f" stroke="#15384f"></path><path d="M494 165L415 132L474 216Z" fill="#15384f" stroke="#15384f"></path><path d="M55 603L159 638L142 561Z" fill="#277297" stroke="#277297"></path><path d="M142 561L159 638L212 620Z" fill="#081a28" stroke="#081a28"></path><path d="M212 620L194 679L279 624Z" fill="#297ea6" stroke="#297ea6"></path><path d="M0 328L106 366L112 334Z" fill="#112e42" stroke="#112e42"></path><path d="M97 458L48 552L142 561Z" fill="#297ea6" stroke="#297ea6"></path><path d="M0 506L48 552L97 458Z" fill="#00101c" stroke="#00101c"></path><path d="M561 217L494 165L474 216Z" fill="#277297" stroke="#277297"></path><path d="M243 144L124 141L232 237Z" fill="#081a28" stroke="#081a28"></path><path d="M108 229L0 328L112 334Z" fill="#277297" stroke="#277297"></path><path d="M202 65L124 141L243 144Z" fill="#15384f" stroke="#15384f"></path><path d="M0 203L0 328L108 229Z" fill="#15384f" stroke="#15384f"></path><path d="M0 414L0 457L97 458Z" fill="#205a7a" stroke="#205a7a"></path><path d="M406 767L418 664L377 646Z" fill="#0c2435" stroke="#0c2435"></path><path d="M377 646L418 664L427 576Z" fill="#1d4e6b" stroke="#1d4e6b"></path><path d="M484 531L549 563L523 474Z" fill="#205a7a" stroke="#205a7a"></path><path d="M165 710L194 679L146 706Z" fill="#19435d" stroke="#19435d"></path><path d="M159 638L194 679L212 620Z" fill="#277297" stroke="#277297"></path><path d="M314 659L406 767L377 646Z" fill="#205a7a" stroke="#205a7a"></path><path d="M97 99L105 141L124 141Z" fill="#205a7a" stroke="#205a7a"></path><path d="M124 141L105 141L115 229Z" fill="#15384f" stroke="#15384f"></path><path d="M541 608L484 531L427 576Z" fill="#112e42" stroke="#112e42"></path><path d="M523 474L610 419L515 380Z" fill="#1d4e6b" stroke="#1d4e6b"></path><path d="M385 63L336 79L340 117Z" fill="#112e42" stroke="#112e42"></path><path d="M340 117L336 79L243 144Z" fill="#277297" stroke="#277297"></path><path d="M385 63L340 117L415 132Z" fill="#15384f" stroke="#15384f"></path><path d="M536 281L561 217L474 216Z" fill="#112e42" stroke="#112e42"></path><path d="M577 222L561 217L536 281Z" fill="#19435d" stroke="#19435d"></path><path d="M0 457L0 506L97 458Z" fill="#277297" stroke="#277297"></path><path d="M582 525L610 419L523 474Z" fill="#1d4e6b" stroke="#1d4e6b"></path><path d="M549 563L582 525L523 474Z" fill="#1d4e6b" stroke="#1d4e6b"></path><path d="M610 419L615 388L515 380Z" fill="#15384f" stroke="#15384f"></path><path d="M0 594L55 603L48 552Z" fill="#19435d" stroke="#19435d"></path><path d="M48 552L55 603L142 561Z" fill="#112e42" stroke="#112e42"></path><path d="M622 271L577 222L536 281Z" fill="#205a7a" stroke="#205a7a"></path><path d="M506 67L486 94L598 143Z" fill="#112e42" stroke="#112e42"></path><path d="M418 664L541 608L427 576Z" fill="#205a7a" stroke="#205a7a"></path><path d="M549 563L629 611L582 525Z" fill="#1d4e6b" stroke="#1d4e6b"></path><path d="M336 79L202 65L243 144Z" fill="#277297" stroke="#277297"></path><path d="M165 710L246 719L194 679Z" fill="#0c2435" stroke="#0c2435"></path><path d="M194 679L246 719L279 624Z" fill="#00101c" stroke="#00101c"></path><path d="M486 94L385 63L415 132Z" fill="#19435d" stroke="#19435d"></path><path d="M336 79L268 0L202 65Z" fill="#15384f" stroke="#15384f"></path><path d="M486 94L415 132L494 165Z" fill="#297ea6" stroke="#297ea6"></path><path d="M0 185L108 229L105 141Z" fill="#1d4e6b" stroke="#1d4e6b"></path><path d="M0 185L0 203L108 229Z" fill="#0c2435" stroke="#0c2435"></path><path d="M615 388L622 271L536 281Z" fill="#081a28" stroke="#081a28"></path><path d="M146 706L194 679L159 638Z" fill="#081a28" stroke="#081a28"></path><path d="M121 68L97 99L124 141Z" fill="#277297" stroke="#277297"></path><path d="M494 165L561 217L598 143Z" fill="#1d4e6b" stroke="#1d4e6b"></path><path d="M486 94L494 165L598 143Z" fill="#297ea6" stroke="#297ea6"></path><path d="M45 650L146 706L159 638Z" fill="#19435d" stroke="#19435d"></path><path d="M97 99L0 185L105 141Z" fill="#00101c" stroke="#00101c"></path><path d="M0 506L0 594L48 552Z" fill="#297ea6" stroke="#297ea6"></path><path d="M55 603L45 650L159 638Z" fill="#112e42" stroke="#112e42"></path><path d="M202 65L121 68L124 141Z" fill="#0c2435" stroke="#0c2435"></path><path d="M97 99L0 42L0 185Z" fill="#1d4e6b" stroke="#1d4e6b"></path><path d="M0 594L45 650L55 603Z" fill="#15384f" stroke="#15384f"></path><path d="M610 419L675 401L615 388Z" fill="#112e42" stroke="#112e42"></path><path d="M615 388L675 307L622 271Z" fill="#246688" stroke="#246688"></path><path d="M675 453L675 401L610 419Z" fill="#277297" stroke="#277297"></path><path d="M675 453L610 419L582 525Z" fill="#112e42" stroke="#112e42"></path><path d="M598 143L561 217L577 222Z" fill="#081a28" stroke="#081a28"></path><path d="M463 0L406 0L385 63Z" fill="#277297" stroke="#277297"></path><path d="M675 540L675 453L582 525Z" fill="#081a28" stroke="#081a28"></path><path d="M536 697L580 647L541 608Z" fill="#15384f" stroke="#15384f"></path><path d="M541 608L629 611L549 563Z" fill="#1d4e6b" stroke="#1d4e6b"></path><path d="M536 697L541 608L418 664Z" fill="#15384f" stroke="#15384f"></path><path d="M406 0L268 0L336 79Z" fill="#112e42" stroke="#112e42"></path><path d="M202 65L133 0L121 68Z" fill="#246688" stroke="#246688"></path><path d="M406 0L336 79L385 63Z" fill="#246688" stroke="#246688"></path><path d="M268 0L250 0L202 65Z" fill="#0c2435" stroke="#0c2435"></path><path d="M675 401L675 307L615 388Z" fill="#277297" stroke="#277297"></path><path d="M675 170L598 143L577 222Z" fill="#081a28" stroke="#081a28"></path><path d="M675 246L577 222L622 271Z" fill="#277297" stroke="#277297"></path><path d="M289 787L303 778L246 719Z" fill="#081a28" stroke="#081a28"></path><path d="M246 719L303 778L314 659Z" fill="#246688" stroke="#246688"></path><path d="M289 787L246 719L228 847Z" fill="#00101c" stroke="#00101c"></path><path d="M513 751L536 697L418 664Z" fill="#00101c" stroke="#00101c"></path><path d="M303 778L406 767L314 659Z" fill="#205a7a" stroke="#205a7a"></path><path d="M228 847L165 710L150 842Z" fill="#081a28" stroke="#081a28"></path><path d="M228 847L246 719L165 710Z" fill="#112e42" stroke="#112e42"></path><path d="M303 778L374 809L406 767Z" fill="#19435d" stroke="#19435d"></path><path d="M463 0L385 63L486 94Z" fill="#205a7a" stroke="#205a7a"></path><path d="M675 614L629 611L675 682Z" fill="#081a28" stroke="#081a28"></path><path d="M580 647L629 611L541 608Z" fill="#0c2435" stroke="#0c2435"></path><path d="M675 307L675 246L622 271Z" fill="#277297" stroke="#277297"></path><path d="M629 611L675 540L582 525Z" fill="#246688" stroke="#246688"></path><path d="M0 594L0 677L45 650Z" fill="#15384f" stroke="#15384f"></path><path d="M45 650L54 788L146 706Z" fill="#19435d" stroke="#19435d"></path><path d="M250 0L133 0L202 65Z" fill="#112e42" stroke="#112e42"></path><path d="M40 0L0 42L97 99Z" fill="#0c2435" stroke="#0c2435"></path><path d="M506 67L463 0L486 94Z" fill="#297ea6" stroke="#297ea6"></path><path d="M542 0L463 0L506 67Z" fill="#297ea6" stroke="#297ea6"></path><path d="M487 836L478 769L406 767Z" fill="#0c2435" stroke="#0c2435"></path><path d="M406 767L478 769L418 664Z" fill="#19435d" stroke="#19435d"></path><path d="M675 682L629 611L580 647Z" fill="#081a28" stroke="#081a28"></path><path d="M478 769L513 751L418 664Z" fill="#081a28" stroke="#081a28"></path><path d="M289 787L374 809L303 778Z" fill="#112e42" stroke="#112e42"></path><path d="M675 246L675 170L577 222Z" fill="#19435d" stroke="#19435d"></path><path d="M598 143L606 66L506 67Z" fill="#0c2435" stroke="#0c2435"></path><path d="M675 682L580 647L639 740Z" fill="#00101c" stroke="#00101c"></path><path d="M629 611L675 614L675 540Z" fill="#00101c" stroke="#00101c"></path><path d="M675 109L606 66L598 143Z" fill="#205a7a" stroke="#205a7a"></path><path d="M40 0L97 99L121 68Z" fill="#1d4e6b" stroke="#1d4e6b"></path><path d="M606 66L542 0L506 67Z" fill="#205a7a" stroke="#205a7a"></path><path d="M133 0L40 0L121 68Z" fill="#19435d" stroke="#19435d"></path><path d="M150 842L165 710L146 706Z" fill="#297ea6" stroke="#297ea6"></path><path d="M289 787L265 900L374 809Z" fill="#246688" stroke="#246688"></path><path d="M0 677L54 788L45 650Z" fill="#297ea6" stroke="#297ea6"></path><path d="M675 170L675 109L598 143Z" fill="#112e42" stroke="#112e42"></path><path d="M606 66L598 0L542 0Z" fill="#1d4e6b" stroke="#1d4e6b"></path><path d="M86 833L150 842L146 706Z" fill="#081a28" stroke="#081a28"></path><path d="M639 740L536 697L513 751Z" fill="#15384f" stroke="#15384f"></path><path d="M639 740L580 647L536 697Z" fill="#277297" stroke="#277297"></path><path d="M40 0L0 0L0 42Z" fill="#205a7a" stroke="#205a7a"></path><path d="M374 809L487 836L406 767Z" fill="#277297" stroke="#277297"></path><path d="M478 769L487 836L513 751Z" fill="#246688" stroke="#246688"></path><path d="M408 900L487 836L374 809Z" fill="#19435d" stroke="#19435d"></path><path d="M675 0L598 0L606 66Z" fill="#19435d" stroke="#19435d"></path><path d="M54 788L86 833L146 706Z" fill="#205a7a" stroke="#205a7a"></path><path d="M597 835L639 740L513 751Z" fill="#246688" stroke="#246688"></path><path d="M0 677L0 788L54 788Z" fill="#15384f" stroke="#15384f"></path><path d="M54 788L0 863L86 833Z" fill="#15384f" stroke="#15384f"></path><path d="M675 824L675 725L639 740Z" fill="#081a28" stroke="#081a28"></path><path d="M639 740L675 725L675 682Z" fill="#19435d" stroke="#19435d"></path><path d="M235 900L228 847L185 900Z" fill="#112e42" stroke="#112e42"></path><path d="M235 900L265 900L228 847Z" fill="#19435d" stroke="#19435d"></path><path d="M228 847L265 900L289 787Z" fill="#297ea6" stroke="#297ea6"></path><path d="M185 900L228 847L150 842Z" fill="#112e42" stroke="#112e42"></path><path d="M55 900L150 842L86 833Z" fill="#19435d" stroke="#19435d"></path><path d="M55 900L185 900L150 842Z" fill="#297ea6" stroke="#297ea6"></path><path d="M265 900L408 900L374 809Z" fill="#112e42" stroke="#112e42"></path><path d="M555 861L597 835L513 751Z" fill="#1d4e6b" stroke="#1d4e6b"></path><path d="M555 861L513 751L487 836Z" fill="#277297" stroke="#277297"></path><path d="M408 900L466 900L487 836Z" fill="#15384f" stroke="#15384f"></path><path d="M549 900L555 861L487 836Z" fill="#112e42" stroke="#112e42"></path><path d="M675 109L675 0L606 66Z" fill="#15384f" stroke="#15384f"></path><path d="M0 788L0 863L54 788Z" fill="#19435d" stroke="#19435d"></path><path d="M0 863L55 900L86 833Z" fill="#1d4e6b" stroke="#1d4e6b"></path><path d="M466 900L549 900L487 836Z" fill="#081a28" stroke="#081a28"></path><path d="M555 861L617 900L597 835Z" fill="#00101c" stroke="#00101c"></path><path d="M617 900L675 824L597 835Z" fill="#277297" stroke="#277297"></path><path d="M597 835L675 824L639 740Z" fill="#246688" stroke="#246688"></path><path d="M0 863L0 900L55 900Z" fill="#15384f" stroke="#15384f"></path><path d="M549 900L617 900L555 861Z" fill="#19435d" stroke="#19435d"></path><path d="M617 900L675 900L675 824Z" fill="#0c2435" stroke="#0c2435"></path></g></svg>